<?xml version="1.0" encoding="UTF-8" standalone="no"?>
<!DOCTYPE svg PUBLIC "-//W3C//DTD SVG 1.1//EN" "http://www.w3.org/Graphics/SVG/1.1/DTD/svg11.dtd">
<svg width="100%" height="100%" viewBox="0 0 36 36" version="1.1" xmlns="http://www.w3.org/2000/svg" xmlns:xlink="http://www.w3.org/1999/xlink" xml:space="preserve" xmlns:serif="http://www.serif.com/" style="fill-rule:evenodd;clip-rule:evenodd;stroke-linejoin:round;stroke-miterlimit:2;">
    <g>
        <path d="M4.293,7.745C0.758,5.623 0.017,-0.443 0.724,0.264C0.017,-0.443 6.249,0.132 8.37,3.668C8.37,2.254 8.959,-1.399 12.767,2.409C17.095,6.737 14.182,8.066 14.182,9.48C14.182,10.894 11.353,10.894 11.353,10.894C11.353,10.894 11.478,13.598 10.063,13.598C8.649,13.598 7.435,16.378 3.117,12.06C-0.691,8.252 2.879,7.745 4.293,7.745Z" style="fill:#eaeaea;fill-rule:nonzero;"/>
        <path d="M1,18.264L9,25.264L25,24.264L26,8.264L19,0.264C19,0.264 19.001,6.263 13,12.264C6.999,18.265 1,18.264 1,18.264Z" style="fill:#b4b4b4;fill-rule:nonzero;"/>
        <path d="M13.11,24.363C21.717,32.97 33.818,36.585 35.57,34.834C37.321,33.082 33.705,20.981 25.099,12.374C16.492,3.768 11.772,6.783 9.645,8.909C7.518,11.037 4.504,15.756 13.11,24.363Z" style="fill:#bdbdbd;fill-rule:nonzero;"/>
        <path d="M26.999,30.264C25.376,30.264 23.986,29.293 23.358,27.904C23.86,28.131 24.413,28.264 24.999,28.264C27.208,28.264 28.999,26.473 28.999,24.264C28.999,23.678 28.866,23.125 28.64,22.624C30.029,23.251 30.999,24.641 30.999,26.264C30.999,28.473 29.208,30.264 26.999,30.264Z" style="fill:#d2d2d2;fill-rule:nonzero;"/>
        <path d="M8,7.264C8,7.264 8,11.264 9,12.264C10,13.264 22.001,23.263 23,22.264C23.999,21.265 13.999,9.264 12.999,8.264C11.999,7.264 8,7.264 8,7.264Z" style="fill:#d2d2d2;fill-rule:nonzero;"/>
    </g>
</svg>
