<?xml version="1.0" encoding="UTF-8" standalone="no"?>
<!DOCTYPE svg PUBLIC "-//W3C//DTD SVG 1.1//EN" "http://www.w3.org/Graphics/SVG/1.1/DTD/svg11.dtd">
<svg width="100%" height="100%" viewBox="0 0 36 36" version="1.1" xmlns="http://www.w3.org/2000/svg" xmlns:xlink="http://www.w3.org/1999/xlink" xml:space="preserve" xmlns:serif="http://www.serif.com/" style="fill-rule:evenodd;clip-rule:evenodd;stroke-linejoin:round;stroke-miterlimit:2;">
    <g>
        <path d="M13.73,24.968L9,25.264L1,18.264C1,18.264 3.893,18.264 7.672,16.255C8.291,18.457 9.884,21.137 13.11,24.363C13.315,24.568 13.522,24.769 13.73,24.968ZM16.99,6.936C19,3.158 19,0.264 19,0.264L26,8.264L25.704,12.994C25.505,12.786 25.304,12.579 25.099,12.374C21.873,9.148 19.193,7.555 16.99,6.936Z" style="fill:#888;fill-opacity:0.28;fill-rule:nonzero;"/>
        <path d="M11.329,7.575C13.913,6.03 18.29,5.565 25.099,12.374C33.705,20.981 37.321,33.082 35.57,34.834C33.818,36.585 21.717,32.97 13.11,24.363C6.301,17.553 6.766,13.177 8.31,10.593C8,9.098 8,7.264 8,7.264C8,7.264 9.834,7.264 11.329,7.575Z" style="fill:#888;fill-opacity:0.41;"/>
        <path d="M7.364,14.478C6.376,14.51 5.061,14.005 3.117,12.06C-0.691,8.252 2.879,7.745 4.293,7.745C0.758,5.623 0.017,-0.443 0.724,0.264C0.017,-0.443 6.249,0.132 8.37,3.668C8.37,2.254 8.959,-1.399 12.767,2.409C14.659,4.302 15.167,5.621 15.14,6.624C13.58,6.547 12.322,6.981 11.329,7.575C9.834,7.264 8,7.264 8,7.264C8,7.264 8,9.098 8.31,10.593C7.707,11.602 7.269,12.884 7.364,14.478Z" style="fill:#888;fill-opacity:0.17;fill-rule:nonzero;"/>
        <path d="M26.999,30.264C25.376,30.264 23.986,29.293 23.358,27.904C23.86,28.131 24.413,28.264 24.999,28.264C27.208,28.264 28.999,26.473 28.999,24.264C28.999,23.678 28.866,23.125 28.64,22.624C30.029,23.251 30.999,24.641 30.999,26.264C30.999,28.473 29.208,30.264 26.999,30.264Z" style="fill:#888;fill-opacity:0.16;fill-rule:nonzero;"/>
        <path d="M8,7.264C8,7.264 8,11.264 9,12.264C10,13.264 22.001,23.263 23,22.264C23.999,21.265 13.999,9.264 12.999,8.264C11.999,7.264 8,7.264 8,7.264Z" style="fill:#888;fill-opacity:0.16;fill-rule:nonzero;"/>
    </g>
</svg>
